<svg xmlns="http://www.w3.org/2000/svg" width="24" height="24" fill="none" id="discord-nitro"><path fill="white" fill-rule="evenodd" d="M15 6a6 6 0 1 0 0 12 6 6 0 0 0 0-12Zm-8 6a8 8 0 1 1 16 0 8 8 0 0 1-16 0Z" clip-rule="evenodd"></path><path fill="white" fill-rule="evenodd" d="M6 4h9v2H6V4zm-.5 3.5h3v2h-3v-2zM2 7.5h1.5v2H2v-2zm2 4h4v2H4v-2zm8.168-3.055A1 1 0 0 1 13 8h4a1 1 0 0 1 .832.445l2 3a1 1 0 0 1 0 1.11l-2 3A1 1 0 0 1 17 16h-4a1 1 0 0 1-.832-.445l-2-3a1 1 0 0 1 0-1.11l2-3zM13.535 10l-1.333 2 1.333 2h2.93l1.333-2-1.333-2h-2.93z" clip-rule="evenodd"></path></svg>